<mxfile host="app.diagrams.net" modified="2024-04-30T11:07:53.395Z" agent="Mozilla/5.0 (Windows NT 10.0; Win64; x64) AppleWebKit/537.36 (KHTML, like Gecko) Chrome/124.0.0.0 Safari/537.36" etag="lvzpZk0SkASyTRHKcKK2" version="24.3.1" type="device">
  <diagram name="페이지-1" id="uv1oUoUO1nbBJa6IVhSF">
    <mxGraphModel dx="1958" dy="1616" grid="1" gridSize="10" guides="1" tooltips="1" connect="1" arrows="1" fold="1" page="1" pageScale="1" pageWidth="827" pageHeight="1169" math="0" shadow="0">
      <root>
        <mxCell id="0" />
        <mxCell id="1" parent="0" />
        <mxCell id="FkuN128y3V-QFinZ5l_d-1" value="&lt;font style=&quot;font-size: 20px;&quot;&gt;전투 시작&lt;/font&gt;" style="rounded=1;whiteSpace=wrap;html=1;strokeWidth=2;" vertex="1" parent="1">
          <mxGeometry x="-190" y="320" width="150" height="60" as="geometry" />
        </mxCell>
        <mxCell id="FkuN128y3V-QFinZ5l_d-4" value="&lt;font style=&quot;font-size: 20px;&quot;&gt;크리처 소환&lt;/font&gt;" style="rounded=0;whiteSpace=wrap;html=1;strokeWidth=2;" vertex="1" parent="1">
          <mxGeometry x="-20" y="320" width="150" height="60" as="geometry" />
        </mxCell>
        <mxCell id="FkuN128y3V-QFinZ5l_d-15" style="edgeStyle=orthogonalEdgeStyle;rounded=0;orthogonalLoop=1;jettySize=auto;html=1;exitX=1;exitY=0.5;exitDx=0;exitDy=0;entryX=0;entryY=0.5;entryDx=0;entryDy=0;" edge="1" parent="1" source="FkuN128y3V-QFinZ5l_d-5" target="FkuN128y3V-QFinZ5l_d-14">
          <mxGeometry relative="1" as="geometry" />
        </mxCell>
        <mxCell id="FkuN128y3V-QFinZ5l_d-16" value="&lt;font style=&quot;font-size: 14px;&quot;&gt;용사 체력 20% 이하&lt;/font&gt;" style="edgeLabel;html=1;align=center;verticalAlign=middle;resizable=0;points=[];" vertex="1" connectable="0" parent="FkuN128y3V-QFinZ5l_d-15">
          <mxGeometry x="0.0429" y="3" relative="1" as="geometry">
            <mxPoint x="-3" y="-7" as="offset" />
          </mxGeometry>
        </mxCell>
        <mxCell id="FkuN128y3V-QFinZ5l_d-19" style="edgeStyle=orthogonalEdgeStyle;rounded=0;orthogonalLoop=1;jettySize=auto;html=1;exitX=0.5;exitY=1;exitDx=0;exitDy=0;entryX=0.5;entryY=1;entryDx=0;entryDy=0;" edge="1" parent="1" source="FkuN128y3V-QFinZ5l_d-5" target="FkuN128y3V-QFinZ5l_d-4">
          <mxGeometry relative="1" as="geometry" />
        </mxCell>
        <mxCell id="FkuN128y3V-QFinZ5l_d-5" value="&lt;span style=&quot;font-size: 20px;&quot;&gt;크리처와 용사 전투&lt;/span&gt;" style="rounded=0;whiteSpace=wrap;html=1;strokeWidth=2;" vertex="1" parent="1">
          <mxGeometry x="150" y="320" width="190" height="60" as="geometry" />
        </mxCell>
        <mxCell id="FkuN128y3V-QFinZ5l_d-6" value="" style="endArrow=classic;html=1;rounded=0;exitX=1;exitY=0.5;exitDx=0;exitDy=0;" edge="1" parent="1" source="FkuN128y3V-QFinZ5l_d-1" target="FkuN128y3V-QFinZ5l_d-4">
          <mxGeometry width="50" height="50" relative="1" as="geometry">
            <mxPoint x="160" y="440" as="sourcePoint" />
            <mxPoint x="210" y="390" as="targetPoint" />
          </mxGeometry>
        </mxCell>
        <mxCell id="FkuN128y3V-QFinZ5l_d-9" value="" style="endArrow=classic;html=1;rounded=0;exitX=1;exitY=0.5;exitDx=0;exitDy=0;entryX=0;entryY=0.5;entryDx=0;entryDy=0;" edge="1" parent="1" source="FkuN128y3V-QFinZ5l_d-4" target="FkuN128y3V-QFinZ5l_d-5">
          <mxGeometry width="50" height="50" relative="1" as="geometry">
            <mxPoint x="155" y="270" as="sourcePoint" />
            <mxPoint x="-36" y="336" as="targetPoint" />
          </mxGeometry>
        </mxCell>
        <mxCell id="FkuN128y3V-QFinZ5l_d-20" style="edgeStyle=orthogonalEdgeStyle;rounded=0;orthogonalLoop=1;jettySize=auto;html=1;exitX=1;exitY=0.5;exitDx=0;exitDy=0;" edge="1" parent="1" source="FkuN128y3V-QFinZ5l_d-14">
          <mxGeometry relative="1" as="geometry">
            <mxPoint x="740" y="349.7142857142858" as="targetPoint" />
          </mxGeometry>
        </mxCell>
        <mxCell id="FkuN128y3V-QFinZ5l_d-14" value="&lt;span style=&quot;font-size: 20px;&quot;&gt;보스 크리처 소환&lt;/span&gt;" style="rounded=0;whiteSpace=wrap;html=1;strokeWidth=2;" vertex="1" parent="1">
          <mxGeometry x="490" y="320" width="190" height="60" as="geometry" />
        </mxCell>
        <mxCell id="FkuN128y3V-QFinZ5l_d-22" value="&lt;font style=&quot;font-size: 20px;&quot;&gt;용사 토벌 성공/실패&lt;/font&gt;" style="rounded=1;whiteSpace=wrap;html=1;strokeWidth=2;" vertex="1" parent="1">
          <mxGeometry x="740" y="320" width="200" height="60" as="geometry" />
        </mxCell>
      </root>
    </mxGraphModel>
  </diagram>
</mxfile>
